<svg width="50" height="50" viewBox="0 0 50 50" fill="current" xmlns="http://www.w3.org/2000/svg">
<path d="M25.0001 35.4167C25.5904 35.4167 26.0855 35.2167 26.4855 34.8167C26.8855 34.4167 27.0848 33.9222 27.0834 33.3333V27.0833H33.3855C33.9758 27.0833 34.4619 26.8833 34.8438 26.4833C35.2258 26.0833 35.4167 25.5889 35.4167 25C35.4167 24.4097 35.2167 23.9146 34.8167 23.5146C34.4167 23.1146 33.9223 22.9153 33.3334 22.9167H27.0834V16.6146C27.0834 16.0243 26.8834 15.5382 26.4834 15.1562C26.0834 14.7743 25.589 14.5833 25.0001 14.5833C24.4098 14.5833 23.9147 14.7833 23.5147 15.1833C23.1147 15.5833 22.9154 16.0778 22.9167 16.6667V22.9167H16.6147C16.0244 22.9167 15.5383 23.1167 15.1563 23.5167C14.7744 23.9167 14.5834 24.4111 14.5834 25C14.5834 25.5903 14.7834 26.0854 15.1834 26.4854C15.5834 26.8854 16.0779 27.0847 16.6667 27.0833H22.9167V33.3854C22.9167 33.9757 23.1167 34.4618 23.5167 34.8437C23.9167 35.2257 24.4112 35.4167 25.0001 35.4167ZM25.0001 45.8333C22.1181 45.8333 19.4098 45.2861 16.8751 44.1917C14.3404 43.0972 12.1355 41.6132 10.2605 39.7396C8.3855 37.8646 6.90147 35.6597 5.80841 33.125C4.71536 30.5903 4.16814 27.8819 4.16675 25C4.16675 22.1181 4.71397 19.4097 5.80841 16.875C6.90286 14.3403 8.38689 12.1354 10.2605 10.2604C12.1355 8.38542 14.3404 6.90139 16.8751 5.80833C19.4098 4.71528 22.1181 4.16805 25.0001 4.16667C27.882 4.16667 30.5904 4.71389 33.1251 5.80833C35.6598 6.90278 37.8647 8.38681 39.7397 10.2604C41.6147 12.1354 43.0994 14.3403 44.1938 16.875C45.2883 19.4097 45.8348 22.1181 45.8334 25C45.8334 27.8819 45.2862 30.5903 44.1917 33.125C43.0973 35.6597 41.6133 37.8646 39.7397 39.7396C37.8647 41.6146 35.6598 43.0993 33.1251 44.1937C30.5904 45.2882 27.882 45.8347 25.0001 45.8333Z"/>
</svg>
