<svg width="32" height="31" viewBox="0 0 32 31" fill="current" xmlns="http://www.w3.org/2000/svg">
<path d="M26.822 9.04166H22.947V5.16666C22.947 3.74195 21.7884 2.58333 20.3637 2.58333H12.6137C11.189 2.58333 10.0304 3.74195 10.0304 5.16666V9.04166H6.15535C4.73065 9.04166 3.57202 10.2003 3.57202 11.625V19.375C3.57202 20.7997 4.73065 21.9583 6.15535 21.9583H10.0304V25.8333C10.0304 27.258 11.189 28.4167 12.6137 28.4167H20.3637C21.7884 28.4167 22.947 27.258 22.947 25.8333V21.9583H26.822C28.2467 21.9583 29.4054 20.7997 29.4054 19.375V11.625C29.4054 10.2003 28.2467 9.04166 26.822 9.04166ZM26.822 19.375H20.3637V24.5417H20.365V25.8333H12.6137V19.375H6.15535V11.625H12.6137V5.16666H20.3637V11.625H26.822V19.375Z" />
<path d="M11.322 18.0833V12.9167L7.44702 15.5L11.322 18.0833ZM21.6554 18.0833L25.5304 15.5L21.6554 12.9167V18.0833ZM13.9054 10.3333H19.072L16.4887 6.45833L13.9054 10.3333ZM16.4887 24.5417L19.072 20.6667H13.9054L16.4887 24.5417Z" />
<path d="M16.4889 18.0833C17.9156 18.0833 19.0722 16.9267 19.0722 15.5C19.0722 14.0733 17.9156 12.9167 16.4889 12.9167C15.0621 12.9167 13.9055 14.0733 13.9055 15.5C13.9055 16.9267 15.0621 18.0833 16.4889 18.0833Z"/>
</svg>
