<svg width="79" height="42" viewBox="0 0 79 42" fill="none" xmlns="http://www.w3.org/2000/svg">
<g clip-path="url(#clip0_6_27728)">
<path d="M76.6696 0H2.33038C1.04335 0 0 1.06538 0 2.3796V36.17C0 37.4842 1.04335 38.5496 2.33038 38.5496H76.6696C77.9566 38.5496 79 37.4842 79 36.17V2.3796C79 1.06538 77.9566 0 76.6696 0Z" fill="#E5E2E3"/>
<path d="M51.7345 1.07083H7.34071V37.1218H51.7345V1.07083Z" fill="#2D6192"/>
<path d="M47.8894 4.10483H11.6519C11.298 4.10483 11.0111 4.39781 11.0111 4.75922V32.4816C11.0111 32.843 11.298 33.136 11.6519 33.136H47.8894C48.2433 33.136 48.5302 32.843 48.5302 32.4816V4.75922C48.5302 4.39781 48.2433 4.10483 47.8894 4.10483Z" fill="black" stroke="white"/>
<path d="M15.105 20.6801C14.7681 20.5941 16.5934 17.75 16.8165 17.5221C17.087 17.246 17.5117 19.1557 17.5711 19.4008C17.5942 19.4955 17.84 20.5339 18.0002 20.2822C18.3296 19.7648 18.574 19.2014 18.9226 18.6906C19.1121 18.413 19.2984 18.1247 19.5046 17.8597C19.7019 17.606 19.7071 17.7848 19.7809 18.0006C19.9953 18.6283 20.2979 19.5456 20.6933 20.0707C20.8356 20.2596 21.0374 19.7347 21.1422 19.5217C21.5345 18.724 21.8951 17.9032 22.3752 17.1545C22.5538 16.8759 23.1522 15.7152 23.3322 16.4695C23.4367 16.9079 23.5139 17.3522 23.5738 17.7992C23.5757 17.8134 23.7266 18.8679 23.781 18.7863C24.0753 18.3443 24.159 17.4383 24.2692 16.9631C24.6599 15.2797 25.0848 13.6225 25.6996 12.0071C26.0158 11.1765 26.3801 10.3641 26.7107 9.5393C26.8587 9.17016 27.1271 8.11469 27.2681 8.48667C27.6429 9.47523 27.6692 10.7612 27.7466 11.8057C27.895 13.8103 28.0452 15.756 28.3631 17.7488C28.6438 19.5084 28.9054 21.3863 29.6504 23.022C29.9261 23.6272 30.269 22.0188 30.3261 21.8485C30.8847 20.1851 31.3934 18.5051 31.9539 16.8423C32.1932 16.1319 32.4268 15.421 32.6542 14.7068C32.7509 14.4032 32.8239 14.1208 32.8663 14.611C33.019 16.3775 33.2129 18.142 33.2856 19.9144C33.2898 20.0165 33.2187 21.5814 33.33 20.7405C33.5167 19.3291 33.8955 17.9414 34.2276 16.5602C34.2875 16.3111 34.3447 15.7943 34.5088 15.563C34.7225 15.2616 34.6709 16.2905 34.7061 16.6609C34.7641 17.2702 34.7959 17.8823 34.8096 18.4942C34.8103 18.5263 34.8304 19.5307 34.928 19.436C35.1987 19.1734 35.3823 18.5381 35.5544 18.2222C35.8582 17.6648 36.1944 16.927 36.6593 16.4796C36.859 16.2874 37.2238 17.8775 37.2808 18.0409C37.4509 18.5292 37.5382 19.3744 38.0157 18.7107C38.3826 18.2009 38.6682 17.6046 39.3326 17.4567C39.8021 17.3522 39.9639 18.2857 40.1513 18.5848C40.3442 18.8924 40.7161 19.4545 41.123 19.1489C41.3797 18.9563 41.8228 18.0293 42.1637 18.0409C42.4143 18.0494 42.6562 19.3841 42.8937 18.4136" stroke="#FDE400" stroke-width="3" stroke-linecap="round"/>
<path d="M5.82596 1.54675H2.09735C1.77559 1.54675 1.51476 1.8131 1.51476 2.14165V36.5269C1.51476 36.8555 1.77559 37.1218 2.09735 37.1218H5.82596C6.14772 37.1218 6.40856 36.8555 6.40856 36.5269V2.14165C6.40856 1.8131 6.14772 1.54675 5.82596 1.54675Z" fill="#A2A2A2"/>
<path d="M5.4764 2.61755H2.33038V4.7592H5.4764V2.61755Z" fill="#63FF85"/>
<path d="M5.4764 6.30594H2.33038V8.44758H5.4764V6.30594Z" fill="#BCBCBC"/>
<path d="M5.4764 9.99432H2.33038V12.136H5.4764V9.99432Z" fill="#BCBCBC"/>
<path d="M5.4764 13.6827H2.33038V15.8244H5.4764V13.6827Z" fill="#BCBCBC"/>
<path d="M5.4764 18.085H2.33038V20.2266H5.4764V18.085Z" fill="#BCBCBC"/>
<path d="M5.4764 22.4872H2.33038V24.6289H5.4764V22.4872Z" fill="#BCBCBC"/>
<path d="M5.4764 33.0765H2.33038V35.2181H5.4764V33.0765Z" fill="#DB9E00"/>
<path d="M77.6018 11.0652H53.2493C52.9275 11.0652 52.6667 11.3315 52.6667 11.6601V24.7479C52.6667 25.0765 52.9275 25.3428 53.2493 25.3428H77.6018C77.9235 25.3428 78.1844 25.0765 78.1844 24.7479V11.6601C78.1844 11.3315 77.9235 11.0652 77.6018 11.0652Z" fill="#7B7B7B"/>
<path d="M14.0988 35.2181H10.3702V36.5269H14.0988V35.2181Z" fill="#595959"/>
<path d="M18.7596 35.2181H15.031V36.5269H18.7596V35.2181Z" fill="#595959"/>
<path d="M26.4499 35.2181H22.7212V36.5269H26.4499V35.2181Z" fill="#595959"/>
<path d="M31.5767 35.2181H27.8481V36.5269H31.5767V35.2181Z" fill="#595959"/>
<path d="M36.2375 35.2181H32.5089V36.5269H36.2375V35.2181Z" fill="#595959"/>
<path d="M43.9277 35.2181H40.1991V36.5269H43.9277V35.2181Z" fill="#595959"/>
<path d="M48.5885 35.2181H44.8599V36.5269H48.5885V35.2181Z" fill="#595959"/>
<path d="M77.8348 1.54675H53.2493C52.9275 1.54675 52.6667 1.8131 52.6667 2.14165V9.51843C52.6667 9.84698 52.9275 10.1133 53.2493 10.1133H77.8348C78.1566 10.1133 78.4174 9.84698 78.4174 9.51843V2.14165C78.4174 1.8131 78.1566 1.54675 77.8348 1.54675Z" fill="#7B7B7B"/>
<path d="M57.7935 3.09348H54.1814V5.11614H57.7935V3.09348Z" fill="#D9D9D9"/>
<path d="M57.2109 12.017H53.5988V14.0396H57.2109V12.017Z" fill="#D9D9D9"/>
<path d="M57.2109 17.847H53.5988V19.8697H57.2109V17.847Z" fill="#D9D9D9"/>
<path d="M57.7935 6.06799H54.1814V8.09066H57.7935V6.06799Z" fill="#D9D9D9"/>
<path d="M57.2109 14.9915H53.5988V17.0142H57.2109V14.9915Z" fill="#D9D9D9"/>
<path d="M57.2109 20.8215H53.5988V22.8442H57.2109V20.8215Z" fill="#D9D9D9"/>
<path d="M62.5708 3.09348H58.9587V5.11614H62.5708V3.09348Z" fill="#D9D9D9"/>
<path d="M61.9882 12.017H58.3761V14.0396H61.9882V12.017Z" fill="#D9D9D9"/>
<path d="M61.9882 17.847H58.3761V19.8697H61.9882V17.847Z" fill="#D9D9D9"/>
<path d="M62.5708 6.06799H58.9587V8.09066H62.5708V6.06799Z" fill="#D9D9D9"/>
<path d="M61.9882 14.9915H58.3761V17.0142H61.9882V14.9915Z" fill="#D9D9D9"/>
<path d="M61.9882 20.8215H58.3761V22.8442H61.9882V20.8215Z" fill="#D9D9D9"/>
<path d="M67.1151 3.09348H63.503V5.11614H67.1151V3.09348Z" fill="#D9D9D9"/>
<path d="M66.5324 12.017H62.9203V14.0396H66.5324V12.017Z" fill="#D9D9D9"/>
<path d="M66.5324 17.847H62.9203V19.8697H66.5324V17.847Z" fill="#D9D9D9"/>
<path d="M67.1151 6.06799H63.503V8.09066H67.1151V6.06799Z" fill="#D9D9D9"/>
<path d="M66.5324 14.9915H62.9203V17.0142H66.5324V14.9915Z" fill="#D9D9D9"/>
<path d="M66.5324 20.8215H62.9203V22.8442H66.5324V20.8215Z" fill="#D9D9D9"/>
<path d="M71.8923 3.09348H68.2802V5.11614H71.8923V3.09348Z" fill="#D9D9D9"/>
<path d="M71.8923 6.06799H68.2802V8.09066H71.8923V6.06799Z" fill="#D9D9D9"/>
<path d="M76.6696 3.09348H73.0575V5.11614H76.6696V3.09348Z" fill="#D9D9D9"/>
<path d="M76.6696 6.06799H73.0575V8.09066H76.6696V6.06799Z" fill="#D9D9D9"/>
<path d="M71.8923 21.8923C73.8872 21.8923 75.5044 20.241 75.5044 18.2039C75.5044 16.1669 73.8872 14.5156 71.8923 14.5156C69.8974 14.5156 68.2802 16.1669 68.2802 18.2039C68.2802 20.241 69.8974 21.8923 71.8923 21.8923Z" fill="#D9D9D9"/>
<path d="M64.3768 30.8159C65.3743 30.8159 66.1829 30.0168 66.1829 29.0312C66.1829 28.0455 65.3743 27.2465 64.3768 27.2465C63.3794 27.2465 62.5708 28.0455 62.5708 29.0312C62.5708 30.0168 63.3794 30.8159 64.3768 30.8159Z" fill="#434343"/>
<path d="M70.0863 30.8159C71.0837 30.8159 71.8923 30.0168 71.8923 29.0312C71.8923 28.0455 71.0837 27.2465 70.0863 27.2465C69.0888 27.2465 68.2802 28.0455 68.2802 29.0312C68.2802 30.0168 69.0888 30.8159 70.0863 30.8159Z" fill="#434343"/>
<path d="M75.2131 30.8159C76.2106 30.8159 77.0192 30.0168 77.0192 29.0312C77.0192 28.0455 76.2106 27.2465 75.2131 27.2465C74.2157 27.2465 73.4071 28.0455 73.4071 29.0312C73.4071 30.0168 74.2157 30.8159 75.2131 30.8159Z" fill="#434343"/>
<path d="M75.2131 35.932C76.2106 35.932 77.0192 35.133 77.0192 34.1473C77.0192 33.1616 76.2106 32.3626 75.2131 32.3626C74.2157 32.3626 73.4071 33.1616 73.4071 34.1473C73.4071 35.133 74.2157 35.932 75.2131 35.932Z" fill="#434343"/>
<path d="M3.84514 38.5496H11.885V39.6204C11.885 40.9346 10.8416 42 9.55458 42H6.17552C4.88849 42 3.84514 40.9346 3.84514 39.6204V38.5496Z" fill="#464646"/>
<path d="M67.9307 38.5496H75.9705V39.6204C75.9705 40.9346 74.9272 42 73.6401 42H70.261C68.974 42 67.9307 40.9346 67.9307 39.6204V38.5496Z" fill="#464646"/>
</g>
<defs>
<clipPath id="clip0_6_27728">
<rect width="79" height="42" fill="white"/>
</clipPath>
</defs>
</svg>
