<svg width="33" height="32" viewBox="0 0 33 32" fill="current" xmlns="http://www.w3.org/2000/svg">
<path d="M25.4101 26.1657H6.22192V6.97752H17.7523L19.4967 5.23314H6.22192C5.75928 5.23314 5.31559 5.41692 4.98846 5.74406C4.66132 6.07119 4.47754 6.51488 4.47754 6.97752V26.1657C4.47754 26.6283 4.66132 27.072 4.98846 27.3992C5.31559 27.7263 5.75928 27.9101 6.22192 27.9101H25.4101C25.8727 27.9101 26.3164 27.7263 26.6436 27.3992C26.9707 27.072 27.1545 26.6283 27.1545 26.1657V13.0829L25.4101 14.8272V26.1657Z" />
<path d="M30.2333 5.09358L27.294 2.1543C27.1636 2.0235 27.0086 1.91972 26.838 1.84891C26.6674 1.7781 26.4845 1.74165 26.2997 1.74165C26.115 1.74165 25.9321 1.7781 25.7615 1.84891C25.5909 1.91972 25.4359 2.0235 25.3054 2.1543L13.3477 14.1818L12.3796 18.377C12.3383 18.5804 12.3427 18.7904 12.3923 18.9919C12.4419 19.1933 12.5355 19.3813 12.6665 19.5423C12.7974 19.7033 12.9624 19.8332 13.1496 19.9228C13.3367 20.0124 13.5414 20.0593 13.7489 20.0604C13.8562 20.0722 13.9644 20.0722 14.0716 20.0604L18.3018 19.1271L30.2333 7.08218C30.3641 6.95173 30.4679 6.79676 30.5387 6.62614C30.6095 6.45552 30.646 6.27261 30.646 6.08788C30.646 5.90315 30.6095 5.72024 30.5387 5.54962C30.4679 5.379 30.3641 5.22403 30.2333 5.09358ZM17.3947 17.5136L14.2025 18.22L14.9438 15.054L23.9448 5.99194L26.4044 8.45151L17.3947 17.5136ZM27.39 7.46594L24.9304 5.00636L26.2823 3.6283L28.7593 6.10532L27.39 7.46594Z" />
</svg>
