<svg width="34" height="27" viewBox="0 0 34 27" fill="current" xmlns="http://www.w3.org/2000/svg">
<g clip-path="url(#clip0_47_2724)">
<path d="M13.6 3.375H20.4V6.75H13.6V3.375ZM12.75 0C11.3422 0 10.2 1.13379 10.2 2.53125V7.59375C10.2 8.99121 11.3422 10.125 12.75 10.125H15.3V11.8125H1.7C0.759687 11.8125 0 12.5666 0 13.5C0 14.4334 0.759687 15.1875 1.7 15.1875H6.8V16.875H4.25C2.84219 16.875 1.7 18.0088 1.7 19.4062V24.4688C1.7 25.8662 2.84219 27 4.25 27H12.75C14.1578 27 15.3 25.8662 15.3 24.4688V19.4062C15.3 18.0088 14.1578 16.875 12.75 16.875H10.2V15.1875H23.8V16.875H21.25C19.8422 16.875 18.7 18.0088 18.7 19.4062V24.4688C18.7 25.8662 19.8422 27 21.25 27H29.75C31.1578 27 32.3 25.8662 32.3 24.4688V19.4062C32.3 18.0088 31.1578 16.875 29.75 16.875H27.2V15.1875H32.3C33.2403 15.1875 34 14.4334 34 13.5C34 12.5666 33.2403 11.8125 32.3 11.8125H18.7V10.125H21.25C22.6578 10.125 23.8 8.99121 23.8 7.59375V2.53125C23.8 1.13379 22.6578 0 21.25 0H12.75ZM5.1 23.625V20.25H11.9V23.625H5.1ZM22.1 20.25H28.9V23.625H22.1V20.25Z" />
</g>
<defs>
<clipPath id="clip0_47_2724">
<rect width="34" height="27" />
</clipPath>
</defs>
</svg>
