<svg width="24" height="24" viewBox="0 0 24 24" fill="current" xmlns="http://www.w3.org/2000/svg">
<path d="M12.0002 23.6667C10.3863 23.6667 8.86961 23.3602 7.45016 22.7473C6.03072 22.1344 4.796 21.3034 3.746 20.2542C2.696 19.2042 1.86494 17.9694 1.25283 16.55C0.640718 15.1305 0.334274 13.6139 0.333496 12C0.333496 10.3861 0.639941 8.86944 1.25283 7.45C1.86572 6.03055 2.69677 4.79583 3.746 3.74583C4.796 2.69583 6.03072 1.86477 7.45016 1.25266C8.86961 0.640551 10.3863 0.334106 12.0002 0.333328C13.6141 0.333328 15.1307 0.639773 16.5502 1.25266C17.9696 1.86555 19.2043 2.69661 20.2543 3.74583C21.3043 4.79583 22.1358 6.03055 22.7487 7.45C23.3615 8.86944 23.6676 10.3861 23.6668 12C23.6668 13.6139 23.3604 15.1305 22.7475 16.55C22.1346 17.9694 21.3036 19.2042 20.2543 20.2542C19.2043 21.3042 17.9696 22.1356 16.5502 22.7485C15.1307 23.3614 13.6141 23.6674 12.0002 23.6667ZM12.0002 21.3333C13.0891 21.3333 14.1149 21.163 15.0778 20.8223C16.0407 20.4817 16.9204 20.0006 17.7168 19.3792L16.0543 17.7167C15.4904 18.125 14.8636 18.4412 14.1737 18.6652C13.4838 18.8892 12.7593 19.0008 12.0002 19C10.0557 19 8.40294 18.3194 7.04183 16.9583C5.68072 15.5972 5.00016 13.9444 5.00016 12C5.00016 10.0556 5.68072 8.40277 7.04183 7.04166C8.40294 5.68055 10.0557 4.99999 12.0002 4.99999C13.9446 4.99999 15.5974 5.68055 16.9585 7.04166C18.3196 8.40277 19.0002 10.0556 19.0002 12C19.0002 12.7583 18.8835 13.4875 18.6502 14.1875C18.4168 14.8875 18.096 15.5194 17.6877 16.0833L19.3502 17.7458C19.9724 16.9486 20.4585 16.0639 20.8085 15.0917C21.1585 14.1194 21.3335 13.0889 21.3335 12C21.3335 9.39444 20.4293 7.18749 18.621 5.37916C16.8127 3.57083 14.6057 2.66666 12.0002 2.66666C9.39461 2.66666 7.18766 3.57083 5.37933 5.37916C3.571 7.18749 2.66683 9.39444 2.66683 12C2.66683 14.6055 3.571 16.8125 5.37933 18.6208C7.18766 20.4292 9.39461 21.3333 12.0002 21.3333ZM12.0002 16.6667C12.4279 16.6667 12.8413 16.613 13.2403 16.5057C13.6393 16.3983 14.0134 16.2381 14.3627 16.025L12.5835 14.2458C12.4863 14.2847 12.3891 14.3092 12.2918 14.3193C12.1946 14.3294 12.0974 14.3341 12.0002 14.3333C11.3585 14.3333 10.809 14.1047 10.3517 13.6473C9.89433 13.19 9.66605 12.6409 9.66683 12C9.66683 11.3583 9.8955 10.8088 10.3528 10.3515C10.8102 9.89416 11.3593 9.66588 12.0002 9.66666C12.6418 9.66666 13.1913 9.89533 13.6487 10.3527C14.106 10.81 14.3343 11.3591 14.3335 12C14.3335 12.1167 14.3284 12.2287 14.3183 12.336C14.3082 12.4433 14.2841 12.5452 14.246 12.6417L15.996 14.3917C16.2099 14.0417 16.3752 13.6672 16.4918 13.2682C16.6085 12.8692 16.6668 12.4464 16.6668 12C16.6668 10.7167 16.2099 9.61805 15.296 8.70416C14.3821 7.79027 13.2835 7.33333 12.0002 7.33333C10.7168 7.33333 9.61822 7.79027 8.70433 8.70416C7.79044 9.61805 7.3335 10.7167 7.3335 12C7.3335 13.2833 7.79044 14.3819 8.70433 15.2958C9.61822 16.2097 10.7168 16.6667 12.0002 16.6667Z" fill="#111111"/>
</svg>
