<svg width="29" height="28" viewBox="0 0 29 28" fill="none" xmlns="http://www.w3.org/2000/svg">
<path d="M10.6931 27.3334L10.1323 23.0667C9.82846 22.9556 9.54195 22.8222 9.27273 22.6667C9.00351 22.5111 8.74083 22.3445 8.4847 22.1667L4.31318 23.8334L0.457153 17.5L4.06779 14.9C4.04442 14.7445 4.03274 14.5942 4.03274 14.4494V13.5507C4.03274 13.4058 4.04442 13.2556 4.06779 13.1L0.457153 10.5L4.31318 4.16669L8.4847 5.83335C8.74176 5.65558 9.01052 5.48891 9.29096 5.33335C9.57139 5.1778 9.85183 5.04446 10.1323 4.93335L10.6931 0.666687H18.4052L18.9661 4.93335C19.2699 5.04446 19.5564 5.1778 19.8256 5.33335C20.0948 5.48891 20.3575 5.65558 20.6136 5.83335L24.7852 4.16669L28.6412 10.5L25.0305 13.1C25.0539 13.2556 25.0656 13.4058 25.0656 13.5507V14.4494C25.0656 14.5942 25.0422 14.7445 24.9955 14.9L28.6061 17.5L24.7501 23.8334L20.6136 22.1667C20.3566 22.3445 20.0878 22.5111 19.8074 22.6667C19.5269 22.8222 19.2465 22.9556 18.9661 23.0667L18.4052 27.3334H10.6931ZM14.6193 18.6667C15.9747 18.6667 17.1315 18.2111 18.0897 17.3C19.0479 16.3889 19.5269 15.2889 19.5269 14C19.5269 12.7111 19.0479 11.6111 18.0897 10.7C17.1315 9.78891 15.9747 9.33335 14.6193 9.33335C13.2405 9.33335 12.0776 9.78891 11.1306 10.7C10.1837 11.6111 9.71068 12.7111 9.71161 14C9.71161 15.2889 10.1846 16.3889 11.1306 17.3C12.0766 18.2111 13.2395 18.6667 14.6193 18.6667Z" fill="white"/>
</svg>
